<?xml version="1.0" encoding="UTF-8" standalone="no"?>
<svg
   xmlns:dc="http://purl.org/dc/elements/1.1/"
   xmlns:cc="http://creativecommons.org/ns#"
   xmlns:rdf="http://www.w3.org/1999/02/22-rdf-syntax-ns#"
   xmlns:svg="http://www.w3.org/2000/svg"
   xmlns="http://www.w3.org/2000/svg"
   xmlns:sodipodi="http://sodipodi.sourceforge.net/DTD/sodipodi-0.dtd"
   xmlns:inkscape="http://www.inkscape.org/namespaces/inkscape"
   version="1.0"
   width="90"
   height="90"
   id="svg4"
   sodipodi:docname="notification.svg"
   inkscape:version="1.0 (4035a4fb49, 2020-05-01)">
  <metadata
     id="metadata10">
    <rdf:RDF>
      <cc:Work
         rdf:about="">
        <dc:format>image/svg+xml</dc:format>
        <dc:type
           rdf:resource="http://purl.org/dc/dcmitype/StillImage" />
        <dc:title />
      </cc:Work>
    </rdf:RDF>
  </metadata>
  <defs
     id="defs8" />
  <sodipodi:namedview
     inkscape:document-rotation="0"
     pagecolor="#ffffff"
     bordercolor="#666666"
     borderopacity="1"
     objecttolerance="10"
     gridtolerance="10"
     guidetolerance="10"
     inkscape:pageopacity="0"
     inkscape:pageshadow="2"
     inkscape:window-width="1920"
     inkscape:window-height="1006"
     id="namedview6"
     showgrid="false"
     inkscape:zoom="8.1555556"
     inkscape:cx="44.754768"
     inkscape:cy="40.095368"
     inkscape:window-x="0"
     inkscape:window-y="0"
     inkscape:window-maximized="1"
     inkscape:current-layer="svg4" />
  <path
     d="M 23.7,87.9 C 18.1,82.8 21.2,74.7 30.4,69.9 C 33.5,68.4 35.8,67.7 39.8,67.8 C 42.3,67.9 45.1,69.3 45.1,69.3 C 45.1,51.2 45.0,17.0 45.0,0.2 C 46.0,0.2 46.7,0.1 48.1,0.1 C 48.1,1.1 48.1,1.9 48.1,2.7 C 48.1,3.6 48.1,4.1 48.2,4.7 C 49.2,11.0 50.6,13.5 57.6,21.2 C 66.5,31.1 69.1,37.0 69.1,44.9 C 69.0,52.3 62.5,68.1 61.1,67.5 C 63.1,61.9 65.9,55.9 66.6,50.9 C 67.5,44.8 65.0,36.2 61.0,31.7 C 57.8,27.9 50.2,24.6 48.1,24.6 C 48.1,24.6 48.0,61.0 48.0,74.8 C 48.0,77.1 45.9,81.2 44.7,82.6 C 39.2,89.2 28.5,92.2 23.7,87.9 z"
     id="path2"
     style="fill:#666666" />
</svg>
